<svg xmlns="http://www.w3.org/2000/svg" viewBox="0 0 64 64" fill="none">
  <defs>
    <linearGradient id="coinGrad" x1="0" y1="0" x2="1" y2="1">
      <stop offset="0%" stop-color="#2196F3"/>
      <stop offset="100%" stop-color="#1976D2"/>
    </linearGradient>
  </defs>
  <!-- Document body -->
  <path d="M10 6h28l12 12v38a4 4 0 0 1-4 4H14a4 4 0 0 1-4-4V10a4 4 0 0 1 4-4z" fill="#C5E3FF"/>
  <!-- Folded corner -->
  <path d="M38 6v8a4 4 0 0 0 4 4h8z" fill="#87BFFF"/>
  <!-- Text lines -->
  <rect x="18" y="26" width="20" height="2.5" rx="1" fill="#87BFFF"/>
  <rect x="18" y="33" width="24" height="2.5" rx="1" fill="#87BFFF"/>
  <rect x="18" y="40" width="16" height="2.5" rx="1" fill="#87BFFF"/>
  <rect x="18" y="47" width="20" height="2.5" rx="1" fill="#87BFFF"/>
  <!-- Euro coin -->
  <circle cx="46" cy="16" r="14" fill="url(#coinGrad)"/>
  <text x="46" y="22" text-anchor="middle" font-family="Arial, sans-serif" font-size="18" font-weight="bold" fill="white">&#8364;</text>
</svg>
